# xmcd CD database file
#
# Track frame offsets:
#	150
#	17738
#	35393
#	52297
#	65644
#	79079
#	89712
#	97084
#	112129
#	125254
#	134643
#	147764
#	162399
#
# Disc length: 2338 seconds
#
# Revision: 0
# Processed by: cddbd v1.5.2PL0 Copyright (c) Steve Scherf et al.
# Submitted via: CDex 1.70
#
DISCID=c409200d
DTITLE=John Williamson - Honest People
DYEAR=2014
DGENRE=Country
TTITLE0=Heatwave
TTITLE1=Keep Walking
TTITLE2=Song For Luke And Mel
TTITLE3=What You Wish For
TTITLE4=Will She Marry Me
TTITLE5=Call Me Blue
TTITLE6=Interval
TTITLE7=It's All About Love
TTITLE8=Grandpa's Cricket
TTITLE9=Kings And Queens
TTITLE10=Girt By Sea
TTITLE11=Honest People
TTITLE12=Clouds Over Tamworth
EXTD=YEAR: 2014
EXTT0=
EXTT1=
EXTT2=
EXTT3=
EXTT4=
EXTT5=
EXTT6=
EXTT7=
EXTT8=
EXTT9=
EXTT10=
EXTT11=
EXTT12=
PLAYORDER=
